<svg width="15" height="16" viewBox="0 0 15 16" fill="none" xmlns="http://www.w3.org/2000/svg">
<path fill-rule="evenodd" clip-rule="evenodd" d="M15 14.2273C15 15.2333 14.25 15.9879 13.25 15.9879H1.75C0.75 15.9879 0 15.2333 0 14.2273V2.65758C0 1.65152 0.75 0.896973 1.75 0.896973H13.125C14.25 0.896973 15 1.65152 15 2.65758V14.2273Z" fill="#757575"/>
<path fill-rule="evenodd" clip-rule="evenodd" d="M7.5 11.3349C9.08782 11.3349 10.375 10.0399 10.375 8.44247C10.375 6.84503 9.08782 5.55005 7.5 5.55005C5.91218 5.55005 4.625 6.84503 4.625 8.44247C4.625 10.0399 5.91218 11.3349 7.5 11.3349Z" fill="white"/>
<path fill-rule="evenodd" clip-rule="evenodd" d="M10.875 5.55002H12.875C13.125 5.55002 13.25 5.42426 13.25 5.17274V3.03487C13.25 2.78335 13 2.65759 12.875 2.65759H10.875C10.625 2.65759 10.5 2.78335 10.5 3.03487V5.04699C10.375 5.2985 10.625 5.55002 10.875 5.55002Z" fill="white"/>
<path fill-rule="evenodd" clip-rule="evenodd" d="M12.125 8.44251C12.125 10.9577 10.125 12.9698 7.5 12.9698C5 12.9698 2.875 10.9577 2.875 8.44251C2.875 8.06524 2.875 7.56221 3 7.18494H1.75V13.7243C1.75 13.9758 2 14.1016 2.125 14.1016H12.875C13.125 14.1016 13.25 13.9758 13.25 13.7243V7.18494H11.875C12 7.68797 12.125 8.06524 12.125 8.44251Z" fill="white"/>
</svg>
