<svg width="14" height="13" viewBox="0 0 14 13" fill="none" xmlns="http://www.w3.org/2000/svg">
<path fill-rule="evenodd" clip-rule="evenodd" d="M14 2.33438C13.475 2.5833 12.95 2.76999 12.3667 2.83222C12.95 2.45884 13.4167 1.83653 13.65 1.152C13.0667 1.52538 12.4833 1.7743 11.8417 1.89877C11.3167 1.27646 10.5583 0.903076 9.74167 0.903076C8.16667 0.903076 6.88333 2.27215 6.88333 3.95237C6.88333 4.2013 6.88333 4.45022 6.94167 4.63691C4.49167 4.51245 2.39167 3.26784 0.991667 1.40092C0.7 1.89877 0.583333 2.39661 0.583333 2.95668C0.583333 4.0146 1.10833 4.94806 1.86667 5.50814C1.4 5.50814 0.933333 5.38368 0.583333 5.13475C0.583333 5.13475 0.583333 5.13475 0.583333 5.19698C0.583333 6.69052 1.575 7.93513 2.85833 8.18405C2.625 8.24628 2.39167 8.30851 2.1 8.30851C1.925 8.30851 1.75 8.30851 1.575 8.24628C1.925 9.49089 2.975 10.3621 4.25833 10.3621C3.26667 11.1711 2.04167 11.669 0.7 11.669C0.466667 11.669 0.233333 11.669 0 11.6067C1.28333 12.478 2.8 12.9758 4.375 12.9758C9.68333 12.9758 12.5417 8.30851 12.5417 4.26353C12.5417 4.13907 12.5417 4.0146 12.5417 3.89014C13.125 3.45453 13.5917 2.89445 14 2.33438Z" fill="#767676"/>
</svg>
