<svg width="61" height="10" viewBox="0 0 61 10" fill="none" xmlns="http://www.w3.org/2000/svg">
<path d="M7.79554 10C7.65028 10 7.49789 9.93997 7.33124 9.8153L5.38647 8.3817C5.19233 8.23926 4.80779 8.23891 4.61501 8.38134L2.6682 9.81601C2.3237 10.0707 1.99448 10.0462 1.8241 9.80428C1.70939 9.6416 1.69343 9.41747 1.77659 9.13828L2.47915 6.75914C2.55212 6.51227 2.4374 6.14606 2.23987 5.99119L0.334808 4.49721C-0.0385348 4.20417 -0.0212253 3.92569 0.0225576 3.78468C0.0663405 3.64437 0.209229 3.40781 0.675228 3.4007L3.05579 3.36483C3.30322 3.36057 3.60087 3.1343 3.68199 2.88886L4.44904 0.531737C4.60007 0.0689091 4.8587 0 4.99989 0C5.1404 0 5.3997 0.0689092 5.55006 0.531382L6.31982 2.88886C6.39924 3.13395 6.6969 3.36057 6.94432 3.36483L9.32353 3.4007C9.79021 3.40816 9.93344 3.64402 9.97722 3.78397C10.021 3.92392 10.0393 4.20239 9.66701 4.4965L7.75923 5.99119C7.56238 6.14641 7.44834 6.51227 7.52165 6.75878L8.22319 9.13935C8.30601 9.41854 8.28937 9.64267 8.17466 9.80499C8.08573 9.92861 7.94794 10 7.79554 10Z" fill="#00A799"/>
<path d="M19.4622 10C19.3169 10 19.1645 9.93997 18.9979 9.8153L17.0531 8.3817C16.859 8.23926 16.4744 8.23891 16.2816 8.38134L14.3348 9.81601C13.9903 10.0707 13.6611 10.0462 13.4907 9.80428C13.376 9.6416 13.3601 9.41747 13.4432 9.13828L14.1458 6.75914C14.2187 6.51227 14.104 6.14606 13.9065 5.99119L12.0014 4.49721C11.6281 4.20417 11.6454 3.92569 11.6892 3.78468C11.733 3.64437 11.8759 3.40781 12.3419 3.4007L14.7224 3.36483C14.9698 3.36057 15.2675 3.1343 15.3486 2.88886L16.1157 0.531737C16.2667 0.0689091 16.5253 0 16.6665 0C16.807 0 17.0663 0.0689092 17.2167 0.531382L17.9865 2.88886C18.0659 3.13395 18.3635 3.36057 18.611 3.36483L20.9902 3.4007C21.4568 3.40816 21.6001 3.64402 21.6438 3.78397C21.6876 3.92392 21.706 4.20239 21.3336 4.4965L19.4259 5.99119C19.229 6.14641 19.115 6.51227 19.1883 6.75878L19.8898 9.13935C19.9726 9.41854 19.956 9.64267 19.8413 9.80499C19.7524 9.92861 19.6146 10 19.4622 10Z" fill="#00A799"/>
<path d="M32.7955 10C32.6503 10 32.4979 9.93997 32.3312 9.8153L30.3865 8.3817C30.1923 8.23926 29.8078 8.23891 29.615 8.38134L27.6682 9.81601C27.3237 10.0707 26.9945 10.0462 26.8241 9.80428C26.7094 9.6416 26.6934 9.41747 26.7766 9.13828L27.4792 6.75914C27.5521 6.51227 27.4374 6.14606 27.2399 5.99119L25.3348 4.49721C24.9615 4.20417 24.9788 3.92569 25.0226 3.78468C25.0663 3.64437 25.2092 3.40781 25.6752 3.4007L28.0558 3.36483C28.3032 3.36057 28.6009 3.1343 28.682 2.88886L29.449 0.531737C29.6001 0.0689091 29.8587 0 29.9999 0C30.1404 0 30.3997 0.0689092 30.5501 0.531382L31.3198 2.88886C31.3992 3.13395 31.6969 3.36057 31.9443 3.36483L34.3235 3.4007C34.7902 3.40816 34.9334 3.64402 34.9772 3.78397C35.021 3.92392 35.0393 4.20239 34.667 4.4965L32.7592 5.99119C32.5624 6.14641 32.4483 6.51227 32.5216 6.75878L33.2232 9.13935C33.306 9.41854 33.2894 9.64267 33.1747 9.80499C33.0857 9.92861 32.9479 10 32.7955 10Z" fill="#00A799"/>
<path d="M44.4622 10C44.3169 10 44.1645 9.93997 43.9979 9.8153L42.0531 8.3817C41.859 8.23926 41.4744 8.23891 41.2816 8.38134L39.3348 9.81601C38.9903 10.0707 38.6611 10.0462 38.4907 9.80428C38.376 9.6416 38.3601 9.41747 38.4432 9.13828L39.1458 6.75914C39.2187 6.51227 39.104 6.14606 38.9065 5.99119L37.0014 4.49721C36.6281 4.20417 36.6454 3.92569 36.6892 3.78468C36.733 3.64437 36.8759 3.40781 37.3419 3.4007L39.7224 3.36483C39.9698 3.36057 40.2675 3.1343 40.3486 2.88886L41.1157 0.531737C41.2667 0.0689091 41.5253 0 41.6665 0C41.807 0 42.0663 0.0689092 42.2167 0.531382L42.9865 2.88886C43.0659 3.13395 43.3635 3.36057 43.611 3.36483L45.9902 3.4007C46.4568 3.40816 46.6001 3.64402 46.6438 3.78397C46.6876 3.92392 46.706 4.20239 46.3336 4.4965L44.4259 5.99119C44.229 6.14641 44.115 6.51227 44.1883 6.75878L44.8898 9.13935C44.9726 9.41854 44.956 9.64267 44.8413 9.80499C44.7524 9.92861 44.6146 10 44.4622 10Z" fill="#00A799"/>
<path d="M58.6289 10C58.4837 10 58.3313 9.93997 58.1646 9.8153L56.2198 8.3817C56.0257 8.23926 55.6412 8.23891 55.4484 8.38134L53.5016 9.81601C53.1571 10.0707 52.8279 10.0462 52.6575 9.80428C52.5428 9.6416 52.5268 9.41747 52.61 9.13828L53.3125 6.75914C53.3855 6.51227 53.2708 6.14606 53.0732 5.99119L51.1682 4.49721C50.7948 4.20417 50.8121 3.92569 50.8559 3.78468C50.8997 3.64437 51.0426 3.40781 51.5086 3.4007L53.8892 3.36483C54.1366 3.36057 54.4342 3.1343 54.5154 2.88886L55.2824 0.531737C55.4334 0.0689091 55.6921 0 55.8333 0C55.9738 0 56.2331 0.0689092 56.3834 0.531382L57.1532 2.88886C57.2326 3.13395 57.5303 3.36057 57.7777 3.36483L60.1569 3.4007C60.6236 3.40816 60.7668 3.64402 60.8106 3.78397C60.8544 3.92392 60.8727 4.20239 60.5004 4.4965L58.5926 5.99119C58.3957 6.14641 58.2817 6.51227 58.355 6.75878L59.0566 9.13935C59.1394 9.41854 59.1227 9.64267 59.008 9.80499C58.9191 9.92861 58.7813 10 58.6289 10Z" fill="#00A799"/>
</svg>
